<?xml version="1.0" encoding="UTF-8" standalone="no"?>
<!DOCTYPE svg PUBLIC "-//W3C//DTD SVG 1.1//EN" "http://www.w3.org/Graphics/SVG/1.1/DTD/svg11.dtd">
<svg width="100%" height="100%" viewBox="0 0 859 92" version="1.1" xmlns="http://www.w3.org/2000/svg" xmlns:xlink="http://www.w3.org/1999/xlink" xml:space="preserve" xmlns:serif="http://www.serif.com/" style="fill-rule:evenodd;clip-rule:evenodd;stroke-linejoin:round;stroke-miterlimit:2;">
    <g transform="matrix(1,0,0,1,-76.4189,-769.687)">
        <g transform="matrix(0.221993,0,0,0.208479,-16079.1,-1206.83)">
            <path d="M72965.7,9830.34L73043.6,9578.04L73043.6,9830.34L73106.7,9830.34L73106.7,9485.94L73016.1,9485.94L72941.8,9731.05L72867,9485.94L72775.1,9485.94L72775.1,9830.34L72837.3,9830.34L72837.3,9578.04L72915.2,9830.34L72965.7,9830.34Z" style="fill-rule:nonzero;"/>
            <path d="M73216.1,9834.66C73247.2,9834.66 73271.1,9824.59 73286.4,9806.84C73296.7,9827.95 73321.1,9836.58 73361.2,9830.34L73361.2,9779.98C73347.2,9781.9 73341.8,9777.58 73341.8,9764.15L73341.8,9661.02C73341.8,9602.5 73305.8,9573.24 73245.8,9573.24C73189.5,9573.24 73153.5,9607.78 73142.7,9650.47L73202.6,9662.46C73208,9639.92 73220.2,9628.89 73243.6,9628.89C73269.7,9628.89 73280.1,9642.32 73280.1,9663.9L73280.1,9667.74L73221.1,9679.73C73173.3,9688.84 73135.5,9709.95 73135.5,9760.31C73135.5,9804.92 73169.7,9834.66 73216.1,9834.66ZM73280.1,9740.65C73280.1,9768.95 73255.3,9783.82 73228.7,9783.82C73209.8,9783.82 73197.6,9773.74 73197.6,9756.48C73197.6,9736.33 73213,9729.14 73233.7,9724.82L73280.1,9714.75L73280.1,9740.65Z" style="fill-rule:nonzero;"/>
            <path d="M73387.7,9830.34L73450.8,9830.34L73450.8,9684.53C73450.8,9651.43 73472.4,9634.64 73494.5,9634.64C73521.5,9634.64 73532.3,9654.79 73532.3,9683.09L73532.3,9830.34L73595.4,9830.34L73595.4,9663.9C73595.4,9609.22 73565.2,9573.24 73515.7,9573.24C73485.5,9573.24 73463.9,9587.63 73450.8,9603.94L73450.8,9578.04L73387.7,9578.04L73387.7,9830.34Z" style="fill-rule:nonzero;"/>
            <path d="M73632.3,9830.34L73695.4,9830.34L73695.4,9684.53C73695.4,9651.43 73717,9634.64 73739.1,9634.64C73766.1,9634.64 73776.9,9654.79 73776.9,9683.09L73776.9,9830.34L73840,9830.34L73840,9663.9C73840,9609.22 73809.8,9573.24 73760.3,9573.24C73730.1,9573.24 73708.5,9587.63 73695.4,9603.94L73695.4,9578.04L73632.3,9578.04L73632.3,9830.34Z" style="fill-rule:nonzero;"/>
            <path d="M73878.3,9548.3L73942.7,9548.3L73942.7,9485.94L73878.3,9485.94L73878.3,9548.3ZM73942.3,9578.04L73879.2,9578.04L73879.2,9830.34L73942.3,9830.34L73942.3,9578.04Z" style="fill-rule:nonzero;"/>
            <path d="M74203.5,9704.19C74203.5,9626.01 74155.8,9573.24 74087.3,9573.24C74018.8,9573.24 73971.1,9626.01 73971.1,9704.19C73971.1,9782.86 74018.8,9835.62 74087.3,9835.62C74155.8,9835.62 74203.5,9782.86 74203.5,9704.19ZM74033.7,9704.19C74033.7,9656.7 74054.4,9628.89 74087.3,9628.89C74120.2,9628.89 74140.5,9656.7 74140.5,9704.19C74140.5,9752.16 74120.2,9779.98 74087.3,9779.98C74054.4,9779.98 74033.7,9752.16 74033.7,9704.19Z" style="fill-rule:nonzero;"/>
            <path d="M74232.8,9830.34L74295.9,9830.34L74295.9,9684.53C74295.9,9651.43 74317.5,9634.64 74339.6,9634.64C74366.6,9634.64 74377.4,9654.79 74377.4,9683.09L74377.4,9830.34L74440.5,9830.34L74440.5,9663.9C74440.5,9609.22 74410.3,9573.24 74360.7,9573.24C74330.6,9573.24 74308.9,9587.63 74295.9,9603.94L74295.9,9578.04L74232.8,9578.04L74232.8,9830.34Z" style="fill-rule:nonzero;"/>
            <path d="M74616.6,9658.14C74616.6,9588.11 74651.3,9542.55 74700.8,9542.55C74736,9542.55 74761.7,9566.05 74770.7,9604.42L74832.8,9582.36C74813.9,9520 74768,9480.67 74700.8,9480.67C74613.5,9480.67 74549.9,9554.06 74549.9,9658.14C74549.9,9762.23 74613.5,9835.62 74700.8,9835.62C74768,9835.62 74813.9,9796.29 74832.8,9733.93L74770.7,9711.87C74761.7,9750.24 74736,9773.74 74700.8,9773.74C74651.3,9773.74 74616.6,9728.18 74616.6,9658.14Z" style="fill-opacity:0.6;fill-rule:nonzero;"/>
            <path d="M75075.6,9704.19C75075.6,9626.01 75027.9,9573.24 74959.4,9573.24C74890.9,9573.24 74843.2,9626.01 74843.2,9704.19C74843.2,9782.86 74890.9,9835.62 74959.4,9835.62C75027.9,9835.62 75075.6,9782.86 75075.6,9704.19ZM74905.8,9704.19C74905.8,9656.7 74926.5,9628.89 74959.4,9628.89C74992.3,9628.89 75012.6,9656.7 75012.6,9704.19C75012.6,9752.16 74992.3,9779.98 74959.4,9779.98C74926.5,9779.98 74905.8,9752.16 74905.8,9704.19Z" style="fill-opacity:0.6;fill-rule:nonzero;"/>
            <path d="M75104.9,9830.34L75168,9830.34L75168,9684.53C75168,9651.43 75189.6,9634.64 75211.7,9634.64C75238.7,9634.64 75249.5,9654.79 75249.5,9683.09L75249.5,9830.34L75312.6,9830.34L75312.6,9663.9C75312.6,9609.22 75282.4,9573.24 75232.8,9573.24C75202.7,9573.24 75181,9587.63 75168,9603.94L75168,9578.04L75104.9,9578.04L75104.9,9830.34Z" style="fill-opacity:0.6;fill-rule:nonzero;"/>
            <path d="M75330.6,9787.65C75352.2,9818.83 75397.3,9835.62 75440.1,9835.62C75496.8,9835.62 75542.8,9803 75542.8,9750.24C75542.8,9693.16 75493.7,9683.09 75452.2,9673.97C75422.9,9667.74 75407.2,9664.86 75407.2,9648.55C75407.2,9634.64 75420.2,9625.53 75440.1,9625.53C75464.8,9625.53 75487.8,9637.52 75503.6,9659.1L75539.6,9616.89C75521.1,9591.47 75483.8,9573.24 75441.9,9573.24C75385.1,9573.24 75345,9606.82 75345,9655.27C75345,9709.47 75387.4,9720.02 75425.6,9728.18C75463.5,9735.85 75481,9738.25 75481,9757.43C75481,9775.66 75462.6,9783.34 75441.4,9783.34C75414.8,9783.34 75386,9768.47 75369.8,9744.96L75330.6,9787.65Z" style="fill-opacity:0.6;fill-rule:nonzero;"/>
            <path d="M75776.6,9578.04L75713.5,9578.04L75713.5,9726.26C75713.5,9758.87 75691.9,9776.14 75669.8,9776.14C75643.7,9776.14 75632,9757.92 75632,9730.09L75632,9578.04L75568.9,9578.04L75568.9,9744.96C75568.9,9799.65 75600.4,9835.62 75649.5,9835.62C75679.7,9835.62 75700.4,9820.75 75713.5,9804.44L75713.5,9830.34L75776.6,9830.34L75776.6,9578.04Z" style="fill-opacity:0.6;fill-rule:nonzero;"/>
            <rect x="75819.8" y="9485.94" width="63.065" height="344.399" style="fill-opacity:0.6;fill-rule:nonzero;"/>
            <path d="M75932,9764.63C75932,9816.43 75957.2,9833.22 76004.9,9833.22C76020.7,9833.22 76034.2,9831.78 76045.5,9829.39L76045.5,9773.74C76037.4,9774.7 76032.9,9775.18 76023.9,9775.18C76005.4,9775.18 75994.1,9772.31 75994.1,9750.72L75994.1,9634.16L76042.3,9634.16L76042.3,9578.04L75994.1,9578.04L75994.1,9506.09L75932,9506.09L75932,9578.04L75900.4,9578.04L75900.4,9634.16L75932,9634.16L75932,9764.63Z" style="fill-opacity:0.6;fill-rule:nonzero;"/>
            <path d="M76073.4,9548.3L76137.8,9548.3L76137.8,9485.94L76073.4,9485.94L76073.4,9548.3ZM76137.4,9578.04L76074.3,9578.04L76074.3,9830.34L76137.4,9830.34L76137.4,9578.04Z" style="fill-opacity:0.6;fill-rule:nonzero;"/>
            <path d="M76175.7,9830.34L76238.7,9830.34L76238.7,9684.53C76238.7,9651.43 76260.4,9634.64 76282.4,9634.64C76309.5,9634.64 76320.3,9654.79 76320.3,9683.09L76320.3,9830.34L76383.3,9830.34L76383.3,9663.9C76383.3,9609.22 76353.1,9573.24 76303.6,9573.24C76273.4,9573.24 76251.8,9587.63 76238.7,9603.94L76238.7,9578.04L76175.7,9578.04L76175.7,9830.34Z" style="fill-opacity:0.6;fill-rule:nonzero;"/>
            <path d="M76643.2,9802.52L76643.2,9578.04L76580.2,9578.04L76580.2,9603.94C76568,9586.67 76543.7,9573.24 76514.4,9573.24C76449.5,9573.24 76411.7,9629.36 76411.7,9697.96C76411.7,9767.03 76449.5,9823.15 76514.4,9823.15C76544.1,9823.15 76568,9809.72 76580.2,9792.45L76580.2,9809.72C76580.2,9851.45 76557.2,9868.72 76524.3,9868.72C76497.3,9868.72 76478.8,9853.37 76472.1,9828.43L76413.1,9846.65C76426.6,9896.06 76466.2,9921 76523.4,9921C76593.7,9921 76643.2,9878.79 76643.2,9802.52ZM76580.6,9695.08L76580.6,9701.79C76580.6,9743.05 76559.5,9766.55 76529.3,9766.55C76495,9766.55 76475.7,9740.17 76475.7,9697.96C76475.7,9655.75 76495,9629.84 76529.3,9629.84C76559.5,9629.84 76580.6,9653.35 76580.6,9695.08Z" style="fill-opacity:0.6;fill-rule:nonzero;"/>
        </g>
    </g>
</svg>
