<?xml version="1.0" encoding="UTF-8" standalone="no"?>
<!DOCTYPE svg PUBLIC "-//W3C//DTD SVG 1.1//EN" "http://www.w3.org/Graphics/SVG/1.1/DTD/svg11.dtd">
<svg width="100%" height="100%" viewBox="0 0 844 92" version="1.1" xmlns="http://www.w3.org/2000/svg" xmlns:xlink="http://www.w3.org/1999/xlink" xml:space="preserve" xmlns:serif="http://www.serif.com/" style="fill-rule:evenodd;clip-rule:evenodd;stroke-linejoin:round;stroke-miterlimit:2;">
    <g transform="matrix(1,0,0,1,-1126.68,-917.932)">
        <g transform="matrix(0.221993,0,0,0.208479,-15029.4,-1058.59)">
            <path d="M72962.5,9830.34L73047.2,9564.13L73047.2,9830.34L73100.8,9830.34L73100.8,9485.94L73023.3,9485.94L72940,9749.76L72856.6,9485.94L72777.4,9485.94L72777.4,9830.34L72831,9830.34L72831,9564.13L72915.7,9830.34L72962.5,9830.34Z" style="fill:white;fill-rule:nonzero;"/>
            <path d="M73213.4,9834.66C73244,9834.66 73268.8,9824.11 73283.7,9806.36C73291.8,9826.99 73312.5,9835.14 73351.7,9830.34L73351.7,9785.74C73336.8,9787.65 73331,9783.34 73331,9768.95L73331,9660.54C73331,9602.5 73296.7,9573.72 73240,9573.72C73187.7,9573.72 73153,9606.34 73141.3,9648.07L73192.2,9660.54C73198.5,9636.08 73212.1,9623.61 73237.7,9623.61C73266.6,9623.61 73278.3,9638.48 73278.3,9662.46L73278.3,9666.78L73213,9681.17C73167.5,9691.24 73133.7,9712.35 73133.7,9760.31C73133.7,9805.4 73168.4,9834.66 73213.4,9834.66ZM73278.3,9741.61C73278.3,9772.31 73250.3,9788.61 73221.5,9788.61C73200.8,9788.61 73187.3,9777.58 73187.3,9757.92C73187.3,9735.37 73204.4,9727.7 73227.4,9722.42L73278.3,9710.91L73278.3,9741.61Z" style="fill:white;fill-rule:nonzero;"/>
            <path d="M73381,9830.34L73435,9830.34L73435,9682.61C73435,9646.63 73459.8,9627.45 73484.1,9627.45C73513.9,9627.45 73525.6,9649.99 73525.6,9681.17L73525.6,9830.34L73579.6,9830.34L73579.6,9664.38C73579.6,9610.18 73549.9,9573.72 73500.4,9573.72C73469.7,9573.72 73448.6,9588.59 73435,9605.38L73435,9578.52L73381,9578.52L73381,9830.34Z" style="fill:white;fill-rule:nonzero;"/>
            <path d="M73621.1,9830.34L73675.1,9830.34L73675.1,9682.61C73675.1,9646.63 73699.9,9627.45 73724.2,9627.45C73754,9627.45 73765.7,9649.99 73765.7,9681.17L73765.7,9830.34L73819.7,9830.34L73819.7,9664.38C73819.7,9610.18 73790,9573.72 73740.5,9573.72C73709.8,9573.72 73688.7,9588.59 73675.1,9605.38L73675.1,9578.52L73621.1,9578.52L73621.1,9830.34Z" style="fill:white;fill-rule:nonzero;"/>
            <path d="M73862.5,9544.94L73918.4,9544.94L73918.4,9485.94L73862.5,9485.94L73862.5,9544.94ZM73917.5,9578.52L73863.4,9578.52L73863.4,9830.34L73917.5,9830.34L73917.5,9578.52Z" style="fill:white;fill-rule:nonzero;"/>
            <path d="M74178.3,9704.67C74178.3,9626.49 74131,9573.72 74064.3,9573.72C73997.7,9573.72 73950.4,9626.49 73950.4,9704.67C73950.4,9782.86 73997.7,9835.62 74064.3,9835.62C74131,9835.62 74178.3,9782.86 74178.3,9704.67ZM74004.9,9704.67C74004.9,9653.35 74027.8,9622.17 74064.3,9622.17C74100.8,9622.17 74123.8,9653.35 74123.8,9704.67C74123.8,9756 74100.8,9787.17 74064.3,9787.17C74027.8,9787.17 74004.9,9756 74004.9,9704.67Z" style="fill:white;fill-rule:nonzero;"/>
            <path d="M74211.2,9830.34L74265.2,9830.34L74265.2,9682.61C74265.2,9646.63 74290,9627.45 74314.3,9627.45C74344.1,9627.45 74355.8,9649.99 74355.8,9681.17L74355.8,9830.34L74409.8,9830.34L74409.8,9664.38C74409.8,9610.18 74380.1,9573.72 74330.6,9573.72C74299.9,9573.72 74278.8,9588.59 74265.2,9605.38L74265.2,9578.52L74211.2,9578.52L74211.2,9830.34Z" style="fill:white;fill-rule:nonzero;"/>
            <path d="M74582.8,9658.14C74582.8,9583.8 74620.7,9534.87 74673.8,9534.87C74711.7,9534.87 74739.1,9559.33 74749,9599.62L74803.1,9579.96C74784.2,9519.04 74739.1,9480.67 74673.8,9480.67C74587.8,9480.67 74525.2,9553.58 74525.2,9658.14C74525.2,9762.71 74587.8,9835.62 74673.8,9835.62C74739.1,9835.62 74784.2,9797.25 74803.1,9736.33L74749,9716.66C74739.1,9756.95 74711.7,9781.42 74673.8,9781.42C74620.7,9781.42 74582.8,9732.49 74582.8,9658.14Z" style="fill:white;fill-opacity:0.5;fill-rule:nonzero;"/>
            <path d="M75044.1,9704.67C75044.1,9626.49 74996.8,9573.72 74930.1,9573.72C74863.5,9573.72 74816.2,9626.49 74816.2,9704.67C74816.2,9782.86 74863.5,9835.62 74930.1,9835.62C74996.8,9835.62 75044.1,9782.86 75044.1,9704.67ZM74870.7,9704.67C74870.7,9653.35 74893.6,9622.17 74930.1,9622.17C74966.6,9622.17 74989.6,9653.35 74989.6,9704.67C74989.6,9756 74966.6,9787.17 74930.1,9787.17C74893.6,9787.17 74870.7,9756 74870.7,9704.67Z" style="fill:white;fill-opacity:0.5;fill-rule:nonzero;"/>
            <path d="M75077,9830.34L75131,9830.34L75131,9682.61C75131,9646.63 75155.8,9627.45 75180.1,9627.45C75209.9,9627.45 75221.6,9649.99 75221.6,9681.17L75221.6,9830.34L75275.6,9830.34L75275.6,9664.38C75275.6,9610.18 75245.9,9573.72 75196.4,9573.72C75165.7,9573.72 75144.6,9588.59 75131,9605.38L75131,9578.52L75077,9578.52L75077,9830.34Z" style="fill:white;fill-opacity:0.5;fill-rule:nonzero;"/>
            <path d="M75296.8,9782.38C75318,9816.91 75361.7,9835.62 75405.4,9835.62C75459,9835.62 75502.7,9803 75502.7,9752.16C75502.7,9694.6 75452.2,9685.49 75412.1,9676.37C75382.4,9669.66 75365.3,9666.3 75365.3,9648.07C75365.3,9631.28 75379.7,9620.73 75401.8,9620.73C75427.9,9620.73 75450.4,9633.68 75463.9,9656.23L75500.4,9621.21C75483.3,9593.39 75446.4,9573.72 75404.9,9573.72C75350.4,9573.72 75312.6,9607.3 75312.6,9653.35C75312.6,9707.07 75355.4,9717.14 75392.8,9725.3C75430.1,9733.45 75450,9735.85 75450,9757.43C75450,9779.98 75428.8,9788.61 75405.8,9788.61C75378.3,9788.61 75351.3,9772.31 75337.4,9747.84L75296.8,9782.38Z" style="fill:white;fill-opacity:0.5;fill-rule:nonzero;"/>
            <path d="M75732,9578.52L75677.9,9578.52L75677.9,9728.18C75677.9,9764.15 75653.6,9783.34 75629.3,9783.34C75600,9783.34 75587.4,9763.67 75587.4,9732.97L75587.4,9578.52L75533.3,9578.52L75533.3,9745.44C75533.3,9799.65 75563.9,9835.62 75613.5,9835.62C75644.1,9835.62 75664.4,9820.27 75677.9,9803.48L75677.9,9830.34L75732,9830.34L75732,9578.52Z" style="fill:white;fill-opacity:0.5;fill-rule:nonzero;"/>
            <rect x="75779.7" y="9485.94" width="54.056" height="344.399" style="fill:white;fill-opacity:0.5;fill-rule:nonzero;"/>
            <path d="M75886.5,9767.03C75886.5,9818.35 75910.8,9833.22 75955.8,9833.22C75969.8,9833.22 75983.3,9831.78 75993.2,9829.86L75993.2,9781.42C75985.1,9782.38 75980.2,9782.86 75971.2,9782.86C75951.8,9782.86 75939.6,9780.46 75939.6,9757.92L75939.6,9627.45L75989.2,9627.45L75989.2,9578.52L75939.6,9578.52L75939.6,9504.65L75886.5,9504.65L75886.5,9578.52L75853.6,9578.52L75853.6,9627.45L75886.5,9627.45L75886.5,9767.03Z" style="fill:white;fill-opacity:0.5;fill-rule:nonzero;"/>
            <path d="M76023.9,9544.94L76079.7,9544.94L76079.7,9485.94L76023.9,9485.94L76023.9,9544.94ZM76078.8,9578.52L76024.8,9578.52L76024.8,9830.34L76078.8,9830.34L76078.8,9578.52Z" style="fill:white;fill-opacity:0.5;fill-rule:nonzero;"/>
            <path d="M76122.1,9830.34L76176.1,9830.34L76176.1,9682.61C76176.1,9646.63 76200.9,9627.45 76225.2,9627.45C76254.9,9627.45 76266.7,9649.99 76266.7,9681.17L76266.7,9830.34L76320.7,9830.34L76320.7,9664.38C76320.7,9610.18 76291,9573.72 76241.4,9573.72C76210.8,9573.72 76189.6,9588.59 76176.1,9605.38L76176.1,9578.52L76122.1,9578.52L76122.1,9830.34Z" style="fill:white;fill-opacity:0.5;fill-rule:nonzero;"/>
            <path d="M76577,9804.92L76577,9578.52L76523,9578.52L76523,9605.38C76510.4,9587.63 76486,9573.72 76456.3,9573.72C76391.4,9573.72 76352.7,9629.84 76352.7,9698.92C76352.7,9767.99 76391.4,9824.11 76456.3,9824.11C76486.5,9824.11 76510.4,9810.2 76523,9792.45L76523,9810.2C76523,9856.25 76498.2,9875.43 76461.7,9875.43C76432,9875.43 76411.7,9857.68 76404.5,9829.39L76354,9848.57C76368.9,9897.5 76407.2,9921.96 76461.7,9921.96C76529.3,9921.96 76577,9879.27 76577,9804.92ZM76523.9,9696.52L76523.9,9702.27C76523.9,9747.36 76500.4,9773.74 76466.7,9773.74C76429.3,9773.74 76407.2,9745.44 76407.2,9698.92C76407.2,9651.91 76429.3,9624.09 76466.7,9624.09C76500.4,9624.09 76523.9,9650.47 76523.9,9696.52Z" style="fill:white;fill-opacity:0.5;fill-rule:nonzero;"/>
        </g>
    </g>
</svg>
